<svg xmlns="http://www.w3.org/2000/svg" width="204.037" height="283.008" viewBox="0 0 204.037 283.008"><defs><style>.a{fill:#fff;}.b{fill:#a70050;}.c{fill:#272d5b;}.d{fill:#93003f;}.e{fill:#3c467e;}</style></defs><g transform="translate(0)"><g transform="translate(0.879 248.289)"><path class="a" d="M223.139,415.89l-1.308-.767a5.209,5.209,0,0,1-2.028-2.176,7.088,7.088,0,0,1-.719-3.264v-4.57a7.088,7.088,0,0,1,.719-3.264,5.245,5.245,0,0,1,2.028-2.182,5.853,5.853,0,0,1,3.033-.773,5.694,5.694,0,0,1,2.627.612,5.549,5.549,0,0,1,2.006,1.735,6.525,6.525,0,0,1,1.09,2.6H228.2a3.685,3.685,0,0,0-.725-1.391,3.543,3.543,0,0,0-1.194-.945,3.341,3.341,0,0,0-3.2.161,3.267,3.267,0,0,0-1.188,1.379,4.757,4.757,0,0,0-.422,2.068v4.57a4.763,4.763,0,0,0,.422,2.062,3.137,3.137,0,0,0,2.97,1.866,3.367,3.367,0,0,0,2.61-1.225,3.612,3.612,0,0,0,.725-1.443h2.387a6.458,6.458,0,0,1-1.1,2.6,5.6,5.6,0,0,1-2.01,1.735,5.661,5.661,0,0,1-2.616.612Z" transform="translate(-219.084 -398.895)"/><path class="a" d="M241.952,415.129a5.2,5.2,0,0,1-2.051-2.153,6.886,6.886,0,0,1-.725-3.224v-4.719a6.886,6.886,0,0,1,.725-3.224,5.207,5.207,0,0,1,2.051-2.153,6.54,6.54,0,0,1,6.123,0,5.2,5.2,0,0,1,2.049,2.153,6.872,6.872,0,0,1,.726,3.224v4.719a6.872,6.872,0,0,1-.726,3.224,5.189,5.189,0,0,1-2.049,2.153,6.54,6.54,0,0,1-6.123,0Zm4.872-2a3.115,3.115,0,0,0,1.211-1.318,4.341,4.341,0,0,0,.428-1.975v-4.879a4.341,4.341,0,0,0-.428-1.975,3.115,3.115,0,0,0-1.211-1.318,3.765,3.765,0,0,0-3.621,0,3.115,3.115,0,0,0-1.211,1.318,4.341,4.341,0,0,0-.428,1.975v4.879a4.341,4.341,0,0,0,.428,1.975,3.115,3.115,0,0,0,1.211,1.318,3.766,3.766,0,0,0,3.621,0Z" transform="translate(-215.347 -398.895)"/><path class="a" d="M272.025,399.039h2.182v16.653h-2.274V403.22l.115.732-4.089,9.426h-1.622l-4.089-9.2.114-.962v12.472h-2.272V399.039h2.181l4.878,11Z" transform="translate(-211.457 -398.868)"/><path class="a" d="M285.837,415.137a4.767,4.767,0,0,1-1.994-2.119,7.524,7.524,0,0,1-.686-3.351V399.039h2.331v10.709a4.019,4.019,0,0,0,.913,2.817,3.865,3.865,0,0,0,5.18,0,4,4,0,0,0,.919-2.817V399.039h2.331v10.628a7.509,7.509,0,0,1-.686,3.351,4.764,4.764,0,0,1-2,2.119,7.215,7.215,0,0,1-6.311,0Z" transform="translate(-207.166 -398.868)"/><path class="a" d="M304.166,399.039h2.113l8.122,12.873-.274.3V399.039h2.307V415.68H314.3L306.2,403l.275-.3V415.68h-2.308Z" transform="translate(-203.258 -398.868)"/><path class="a" d="M328.2,415.692h-2.329V399.039H328.2Z" transform="translate(-199.222 -398.868)"/><path class="a" d="M339.19,399.039h2.33v16.653h-2.33Zm1.576,14.431h3.758a3.987,3.987,0,0,0,2.85-.956,3.534,3.534,0,0,0,1.01-2.7v-4.9a3.536,3.536,0,0,0-1.01-2.7,3.987,3.987,0,0,0-2.85-.956h-3.758v-2.222h3.69a7.654,7.654,0,0,1,3.416.7,4.862,4.862,0,0,1,2.159,2.038,6.579,6.579,0,0,1,.742,3.23v4.719a6.579,6.579,0,0,1-.742,3.229,4.858,4.858,0,0,1-2.164,2.038,7.689,7.689,0,0,1-3.422.7h-3.678Z" transform="translate(-196.743 -398.868)"/><path class="a" d="M364.51,399.039H366.5l6.122,16.653h-2.513l-4.6-13.434-4.6,13.434h-2.513Zm-3.3,10.778h8.738v2.221h-8.738Z" transform="translate(-193.173 -398.868)"/><path class="a" d="M380.4,399.039h2.331v16.653H380.4Zm1.576,14.431h3.758a3.985,3.985,0,0,0,2.85-.956,3.53,3.53,0,0,0,1.012-2.7v-4.9a3.532,3.532,0,0,0-1.012-2.7,3.985,3.985,0,0,0-2.85-.956h-3.758v-2.222h3.69a7.65,7.65,0,0,1,3.416.7,4.871,4.871,0,0,1,2.16,2.038,6.579,6.579,0,0,1,.742,3.23v4.719a6.579,6.579,0,0,1-.742,3.229,4.86,4.86,0,0,1-2.166,2.038,7.687,7.687,0,0,1-3.42.7h-3.679Z" transform="translate(-189.079 -398.868)"/></g><g transform="translate(0.621 193.686)"><path class="a" d="M251.372,384.778q-.34,8-4.465,12.117t-11.655,4.131q-7.913.014-12.134-5.2t-4.238-14.88l-.013-7.869q-.016-9.635,4.332-14.862t12.1-5.24q7.625-.012,11.588,4.252t4.522,12.263l-9.451.015q-.135-4.946-1.534-6.823t-5.113-1.87q-3.78.007-5.345,2.659t-1.652,8.724l.015,8.832q.011,6.97,1.569,9.57t5.339,2.592q3.715-.005,5.122-1.823t1.592-6.572Z" transform="translate(-218.867 -352.974)"/><path class="a" d="M279.742,380.847a23.707,23.707,0,0,1-1.842,9.687,14.8,14.8,0,0,1-5.275,6.5,13.665,13.665,0,0,1-7.781,2.309,13.941,13.941,0,0,1-7.805-2.235,14.709,14.709,0,0,1-5.361-6.479,23.493,23.493,0,0,1-1.921-9.729l0-1.445a23.827,23.827,0,0,1,1.858-9.752,14.769,14.769,0,0,1,5.291-6.514,13.8,13.8,0,0,1,7.813-2.293,13.351,13.351,0,0,1,10.516,4.655q4.108,4.668,4.474,12.472Zm-9.069-1.495q-.009-5.3-1.567-8.139a4.822,4.822,0,0,0-8.794.014q-1.5,2.847-1.492,8.145l0,1.478q.009,5.331,1.6,8.171a4.87,4.87,0,0,0,4.411,2.836,4.739,4.739,0,0,0,4.272-2.882,17.217,17.217,0,0,0,1.573-7.985Z" transform="translate(-213.122 -351.477)"/><path class="a" d="M280.047,400.205l-.078-46.766,12.334-.021q8.169-.012,13.032,5.182t4.973,14.253l.013,7.58q.014,9.219-4.831,14.478t-13.366,5.274Zm9.354-38.912.051,31.06,2.819,0q4.709-.007,6.627-2.5t2-8.595l-.013-8.127q-.011-6.551-1.842-9.136t-6.219-2.7Z" transform="translate(-207.502 -352.89)"/><path class="a" d="M331.837,383.089l-12.174.02.014,8.063,14.48-.025.013,7.484-23.547.039-.063-37.419,23.579-.039.013,7.58-14.513.024.012,6.744,12.174-.019Z" transform="translate(-201.811 -351.416)"/><path class="a" d="M357.408,390.508l-12.847.023-2.482,9.576-9.964.017,14.5-46.791,8.619-.014,14.75,46.742-10.06.015ZM346.6,382.656l8.715-.014-4.386-16.662Z" transform="translate(-197.802 -352.909)"/><path class="a" d="M379.365,385.674l-3.237.006.021,12.88-9.1.015-.063-37.42,13.519-.023q6.184-.011,9.6,2.906t3.425,8.314a14.31,14.31,0,0,1-1.3,6.507,10.162,10.162,0,0,1-4.35,4.263l6.849,15.02v.386l-9.77.015Zm-3.248-7.542,4.26-.007q4.1-.007,4.093-4.729-.007-4.657-3.916-4.683l-4.454.007Z" transform="translate(-191.315 -351.431)"/></g><g transform="translate(0 270.568)"><path class="a" d="M218.343,417.737h1.2v12.188h-1.2Zm.651,11.065h2.96a.853.853,0,0,0,.669-.26,1.065,1.065,0,0,0,.235-.738v-7.947a1.062,1.062,0,0,0-.235-.737.856.856,0,0,0-.669-.259h-2.96v-1.124h2.91a2.475,2.475,0,0,1,1.171.256,1.69,1.69,0,0,1,.735.746,2.582,2.582,0,0,1,.251,1.187v7.812a2.551,2.551,0,0,1-.255,1.187,1.726,1.726,0,0,1-.74.746,2.49,2.49,0,0,1-1.171.256h-2.9Z" transform="translate(-218.343 -417.611)"/><path class="a" d="M224.575,417.737h1.2v12.188h-1.2Zm.828,0h4.389v1.124H225.4Zm0,5.574h3.972v1.124H225.4Zm0,5.491h4.389v1.122H225.4Z" transform="translate(-217.184 -417.611)"/><path class="a" d="M232.146,417.737h1.2v12.188h-1.2ZM232.8,428.8h2.96a.854.854,0,0,0,.669-.26,1.07,1.07,0,0,0,.234-.738v-7.947a1.067,1.067,0,0,0-.234-.737.858.858,0,0,0-.669-.259H232.8v-1.124h2.909a2.477,2.477,0,0,1,1.172.256,1.7,1.7,0,0,1,.735.746,2.583,2.583,0,0,1,.25,1.187v7.812a2.537,2.537,0,0,1-.255,1.187,1.713,1.713,0,0,1-.74.746,2.483,2.483,0,0,1-1.171.256h-2.9Z" transform="translate(-215.776 -417.611)"/><path class="a" d="M238.378,417.737h1.2v12.188h-1.2Zm.828,0H243.6v1.124h-4.389Zm0,5.574h3.972v1.124h-3.972Zm0,5.491H243.6v1.122h-4.389Z" transform="translate(-214.616 -417.611)"/><path class="a" d="M245.073,429.757a2.089,2.089,0,0,1-.983-.951,3.485,3.485,0,0,1-.326-1.593v-.6h1.187v.6a1.787,1.787,0,0,0,.439,1.316,1.825,1.825,0,0,0,1.334.435,1.754,1.754,0,0,0,1.3-.435,1.8,1.8,0,0,0,.431-1.316v-.722a1.863,1.863,0,0,0-.259-1,2.366,2.366,0,0,0-.665-.7,8.9,8.9,0,0,0-1.041-.6.164.164,0,0,1-.046-.021l-.037-.02-.117-.059a11.784,11.784,0,0,1-1.325-.746,2.868,2.868,0,0,1-.844-.9,2.642,2.642,0,0,1-.348-1.4v-.595a3.381,3.381,0,0,1,.326-1.567,2.07,2.07,0,0,1,.978-.939,3.811,3.811,0,0,1,1.639-.31,3.556,3.556,0,0,1,1.588.315,2.064,2.064,0,0,1,.954.946,3.536,3.536,0,0,1,.318,1.589v.637h-1.188v-.637a1.825,1.825,0,0,0-.417-1.308,1.661,1.661,0,0,0-1.254-.435,1.858,1.858,0,0,0-1.318.414,1.64,1.64,0,0,0-.439,1.245v.6a1.626,1.626,0,0,0,.276.956,2.363,2.363,0,0,0,.681.649,11.464,11.464,0,0,0,1.117.6c.044.023.088.043.129.063s.084.04.129.063c.023.011.043.021.063.03a.3.3,0,0,1,.055.029,7.082,7.082,0,0,1,1.158.709,2.807,2.807,0,0,1,.773.943,3.022,3.022,0,0,1,.3,1.408v.772a3.5,3.5,0,0,1-.321,1.589,2.1,2.1,0,0,1-.97.951,3.671,3.671,0,0,1-1.626.319A3.816,3.816,0,0,1,245.073,429.757Z" transform="translate(-213.615 -417.631)"/><path class="a" d="M252.094,417.737h1.455l2.81,12.188H255.02l-2.2-10.838-2.2,10.838h-1.338Zm-1.245,8.106h4.13v1.122h-4.13Z" transform="translate(-212.588 -417.611)"/><path class="a" d="M256.165,417.73h1.2v12.2h-1.2Zm.744,5.918h2.25a2,2,0,0,0,.931-.2,1.367,1.367,0,0,0,.594-.591,1.99,1.99,0,0,0,.205-.935v-1.258a2.152,2.152,0,0,0-.205-.976,1.417,1.417,0,0,0-.594-.621,1.9,1.9,0,0,0-.931-.214h-2.25V417.73h2.166a3.765,3.765,0,0,1,1.631.322,2.287,2.287,0,0,1,1.032.948,2.973,2.973,0,0,1,.356,1.5v1.426a3.121,3.121,0,0,1-.356,1.537,2.336,2.336,0,0,1-1.032.977,3.645,3.645,0,0,1-1.631.335h-2.166Zm2.517.746,1.07-.385,1.94,5.918h-1.4Z" transform="translate(-211.308 -417.612)"/><path class="a" d="M262.686,417.73h1.2v12.2h-1.2Zm.744,5.918h2.25a2.006,2.006,0,0,0,.932-.2,1.37,1.37,0,0,0,.593-.591,1.99,1.99,0,0,0,.205-.935v-1.258a2.152,2.152,0,0,0-.205-.976,1.421,1.421,0,0,0-.593-.621,1.909,1.909,0,0,0-.932-.214h-2.25V417.73H265.6a3.765,3.765,0,0,1,1.631.322,2.287,2.287,0,0,1,1.032.948,2.973,2.973,0,0,1,.356,1.5v1.426a3.12,3.12,0,0,1-.356,1.537,2.336,2.336,0,0,1-1.032.977,3.645,3.645,0,0,1-1.631.335H263.43Zm2.517.746,1.07-.385,1.94,5.918h-1.4Z" transform="translate(-210.095 -417.612)"/><path class="a" d="M270.595,429.711a2.418,2.418,0,0,1-1.033-1.048,3.591,3.591,0,0,1-.355-1.66v-6.3a3.591,3.591,0,0,1,.355-1.66,2.418,2.418,0,0,1,1.033-1.048,3.871,3.871,0,0,1,3.262,0,2.422,2.422,0,0,1,1.032,1.048,3.577,3.577,0,0,1,.356,1.66V427a3.576,3.576,0,0,1-.356,1.66,2.422,2.422,0,0,1-1.032,1.048,3.871,3.871,0,0,1-3.262,0Zm2.613-1.036a1.441,1.441,0,0,0,.619-.624,2.122,2.122,0,0,0,.214-.989v-6.421a2.125,2.125,0,0,0-.214-.989,1.442,1.442,0,0,0-.619-.624,2.363,2.363,0,0,0-1.965,0,1.446,1.446,0,0,0-.618.624,2.126,2.126,0,0,0-.214.989v6.421a2.123,2.123,0,0,0,.214.989,1.445,1.445,0,0,0,.618.624,2.362,2.362,0,0,0,1.965,0Z" transform="translate(-208.882 -417.631)"/><path class="a" d="M275.707,417.737h1.2v12.188h-1.2Zm.853,11.065h4.2v1.122h-4.2Z" transform="translate(-207.673 -417.611)"/><path class="a" d="M281.022,417.737h1.2v12.188h-1.2Zm.853,11.065h4.2v1.122h-4.2Z" transform="translate(-206.684 -417.611)"/><path class="a" d="M288.654,417.737h1.455l2.81,12.188h-1.338l-2.2-10.838-2.2,10.838h-1.338Zm-1.245,8.106h4.13v1.122h-4.13Z" transform="translate(-205.787 -417.611)"/><path class="a" d="M292.725,417.737h1.2v12.188h-1.2Zm.651,11.065h2.96a.853.853,0,0,0,.669-.26,1.065,1.065,0,0,0,.235-.738v-7.947a1.062,1.062,0,0,0-.235-.737.856.856,0,0,0-.669-.259h-2.96v-1.124h2.91a2.475,2.475,0,0,1,1.171.256,1.69,1.69,0,0,1,.735.746,2.581,2.581,0,0,1,.251,1.187v7.812a2.552,2.552,0,0,1-.255,1.187,1.72,1.72,0,0,1-.74.746,2.49,2.49,0,0,1-1.171.256h-2.9Z" transform="translate(-204.507 -417.611)"/><path class="a" d="M300.345,429.711a2.418,2.418,0,0,1-1.033-1.048,3.591,3.591,0,0,1-.355-1.66v-6.3a3.591,3.591,0,0,1,.355-1.66,2.418,2.418,0,0,1,1.033-1.048,3.871,3.871,0,0,1,3.261,0,2.422,2.422,0,0,1,1.032,1.048,3.576,3.576,0,0,1,.356,1.66V427a3.576,3.576,0,0,1-.356,1.66,2.422,2.422,0,0,1-1.032,1.048,3.871,3.871,0,0,1-3.261,0Zm2.613-1.036a1.441,1.441,0,0,0,.619-.624,2.122,2.122,0,0,0,.214-.989v-6.421a2.126,2.126,0,0,0-.214-.989,1.442,1.442,0,0,0-.619-.624,2.363,2.363,0,0,0-1.965,0,1.446,1.446,0,0,0-.618.624,2.126,2.126,0,0,0-.214.989v6.421a2.122,2.122,0,0,0,.214.989,1.446,1.446,0,0,0,.618.624,2.362,2.362,0,0,0,1.965,0Z" transform="translate(-203.348 -417.631)"/><path class="a" d="M305.457,417.73h1.2v12.2h-1.2Zm.744,5.918h2.25a2.006,2.006,0,0,0,.932-.2,1.37,1.37,0,0,0,.593-.591,1.976,1.976,0,0,0,.205-.935v-1.258a2.137,2.137,0,0,0-.205-.976,1.421,1.421,0,0,0-.593-.621,1.908,1.908,0,0,0-.932-.214H306.2V417.73h2.166a3.765,3.765,0,0,1,1.631.322,2.289,2.289,0,0,1,1.033.948,2.985,2.985,0,0,1,.355,1.5v1.426a3.133,3.133,0,0,1-.355,1.537,2.339,2.339,0,0,1-1.033.977,3.645,3.645,0,0,1-1.631.335H306.2Zm2.517.746,1.071-.385,1.939,5.918h-1.4Z" transform="translate(-202.139 -417.612)"/><path class="a" d="M311.978,417.737h1.2v12.188h-1.2Zm.828,0H317.2v1.124h-4.389Zm0,5.574h3.972v1.124h-3.972Zm0,5.491H317.2v1.122h-4.389Z" transform="translate(-200.926 -417.611)"/><path class="a" d="M318.672,429.757a2.086,2.086,0,0,1-.982-.951,3.47,3.47,0,0,1-.326-1.593v-.6h1.187v.6a1.782,1.782,0,0,0,.439,1.316,1.822,1.822,0,0,0,1.333.435,1.757,1.757,0,0,0,1.3-.435,1.8,1.8,0,0,0,.431-1.316v-.722a1.852,1.852,0,0,0-.26-1,2.362,2.362,0,0,0-.664-.7,9,9,0,0,0-1.041-.6.165.165,0,0,1-.046-.021l-.038-.02-.116-.059a11.68,11.68,0,0,1-1.325-.746,2.872,2.872,0,0,1-.846-.9,2.642,2.642,0,0,1-.346-1.4v-.595a3.366,3.366,0,0,1,.326-1.567,2.071,2.071,0,0,1,.978-.939,3.805,3.805,0,0,1,1.638-.31,3.558,3.558,0,0,1,1.589.315,2.056,2.056,0,0,1,.952.946,3.52,3.52,0,0,1,.318,1.589v.637h-1.187v-.637a1.825,1.825,0,0,0-.417-1.308,1.664,1.664,0,0,0-1.255-.435,1.857,1.857,0,0,0-1.316.414,1.635,1.635,0,0,0-.439,1.245v.6a1.634,1.634,0,0,0,.275.956,2.368,2.368,0,0,0,.682.649,11.564,11.564,0,0,0,1.116.6l.13.063c.042.019.084.04.129.063.021.011.043.021.063.03a.289.289,0,0,1,.053.029,7.1,7.1,0,0,1,1.159.709,2.822,2.822,0,0,1,.773.943,3.023,3.023,0,0,1,.3,1.408v.772a3.486,3.486,0,0,1-.323,1.589,2.09,2.09,0,0,1-.969.951,3.677,3.677,0,0,1-1.627.319A3.823,3.823,0,0,1,318.672,429.757Z" transform="translate(-199.924 -417.631)"/><path class="a" d="M325.774,417.737h1.205v12.188h-1.205Zm.652,11.065h2.96a.854.854,0,0,0,.669-.26,1.065,1.065,0,0,0,.234-.738v-7.947a1.061,1.061,0,0,0-.234-.737.858.858,0,0,0-.669-.259h-2.96v-1.124h2.911a2.475,2.475,0,0,1,1.171.256,1.7,1.7,0,0,1,.735.746,2.582,2.582,0,0,1,.251,1.187v7.812a2.537,2.537,0,0,1-.256,1.187,1.717,1.717,0,0,1-.739.746,2.491,2.491,0,0,1-1.172.256h-2.9Z" transform="translate(-198.36 -417.611)"/><path class="a" d="M332.006,417.737h1.2v12.188h-1.2Zm.828,0h4.389v1.124h-4.389Zm0,5.574h3.972v1.124h-3.972Zm0,5.491h4.389v1.122h-4.389Z" transform="translate(-197.201 -417.611)"/><path class="a" d="M341.894,417.737h1.455l2.808,12.188H344.82l-2.2-10.838-2.2,10.838h-1.338Zm-1.246,8.106h4.131v1.122h-4.131Z" transform="translate(-195.884 -417.611)"/><path class="a" d="M345.965,417.73h1.2v12.2h-1.2Zm.744,5.918h2.25a2.006,2.006,0,0,0,.932-.2,1.369,1.369,0,0,0,.593-.591,1.976,1.976,0,0,0,.205-.935v-1.258a2.137,2.137,0,0,0-.205-.976,1.42,1.42,0,0,0-.593-.621,1.909,1.909,0,0,0-.932-.214h-2.25V417.73h2.166a3.765,3.765,0,0,1,1.631.322,2.287,2.287,0,0,1,1.032.948,2.972,2.972,0,0,1,.356,1.5v1.426a3.12,3.12,0,0,1-.356,1.537,2.336,2.336,0,0,1-1.032.977,3.645,3.645,0,0,1-1.631.335h-2.166Zm2.517.746,1.071-.385,1.939,5.918h-1.4Z" transform="translate(-194.604 -417.612)"/><path class="a" d="M358.372,423.381v3.554a3.837,3.837,0,0,1-.343,1.694,2.416,2.416,0,0,1-1,1.073,3.179,3.179,0,0,1-1.576.369,3.44,3.44,0,0,1-1.606-.348,2.335,2.335,0,0,1-1.015-1.01,3.392,3.392,0,0,1-.348-1.592v-6.363a3.808,3.808,0,0,1,.343-1.69,2.413,2.413,0,0,1,1-1.069,3.543,3.543,0,0,1,3.123-.012,2.348,2.348,0,0,1,.983,1.039,3.66,3.66,0,0,1,.339,1.639v.587h-1.3v-.587a2.572,2.572,0,0,0-.18-1.014,1.348,1.348,0,0,0-.531-.637,1.587,1.587,0,0,0-.853-.218,1.775,1.775,0,0,0-.927.231,1.468,1.468,0,0,0-.586.671,2.556,2.556,0,0,0-.2,1.061v6.363a2.057,2.057,0,0,0,.21.963,1.413,1.413,0,0,0,.6.612,2.012,2.012,0,0,0,.954.209,1.8,1.8,0,0,0,.927-.226,1.454,1.454,0,0,0,.586-.662,2.508,2.508,0,0,0,.2-1.048V424.5h-1.756v-1.124Z" transform="translate(-193.392 -417.631)"/><path class="a" d="M358.859,417.737h1.2v12.188h-1.2Zm.828,0h4.389v1.124h-4.389Zm0,5.574h3.972v1.124h-3.972Zm0,5.491h4.389v1.122h-4.389Z" transform="translate(-192.206 -417.611)"/><path class="a" d="M364.316,417.737h1.128l3.855,10.008-.2.219V417.737h1.187v12.18h-1.146L365.3,419.908l.2-.219v10.227h-1.187Z" transform="translate(-191.191 -417.611)"/><path class="a" d="M370.054,417.737h5.9v1.124h-5.9Zm2.349,1h1.2v11.19h-1.2Z" transform="translate(-190.124 -417.611)"/><path class="a" d="M377.088,429.925h-1.2V417.737h1.2Z" transform="translate(-189.039 -417.611)"/><path class="a" d="M378.457,417.737h1.129l3.855,10.008-.2.219V417.737h1.187v12.18h-1.146l-3.838-10.008.2-.219v10.227h-1.187Z" transform="translate(-188.561 -417.611)"/><path class="a" d="M387.217,417.737h1.455l2.809,12.188h-1.338l-2.2-10.838-2.2,10.838h-1.338Zm-1.246,8.106H390.1v1.122H385.97Z" transform="translate(-187.454 -417.611)"/></g><path class="b" d="M283.225,372.75,365.736,299.5,343.489,190.085l-52.41,46.524,35.272,61.251Z" transform="translate(-206.275 -190.085)"/><path class="c" d="M298.022,231.538l-8.425-14.63-43.7,75.88,43.285,75.166L267.04,259.04Z" transform="translate(-213.217 -185.014)"/><path class="d" d="M329.978,290.462l-35.272-61.251-30.981,27.5L285.87,365.628l.227.394.755-.67Z" transform="translate(-209.902 -182.687)"/><path class="e" d="M329.978,290.462l-35.272-61.251-30.981,27.5L285.87,365.628l.227.394.755-.67Z" transform="translate(-209.902 -182.687)"/></g></svg>