<svg xmlns="http://www.w3.org/2000/svg" width="163" height="159.522" viewBox="0 0 163 159.522"><defs><style>.a{fill:none;stroke:#657cbd;stroke-width:3px;}</style></defs><g transform="translate(1.5 1.5)"><rect class="a" width="26" height="27" rx="1" transform="translate(32.123 107.944)"/><rect class="a" width="26" height="28" rx="1" transform="translate(32.123 72.405)"/><rect class="a" width="29" height="27" rx="1" transform="translate(65.839 107.944)"/><rect class="a" width="29" height="28" rx="1" transform="translate(65.839 72.405)"/><rect class="a" width="29" height="28" rx="1" transform="translate(100.553 72.405)"/><path class="a" d="M14.5,36.017a3.5,3.5,0,0,1-3.5-3.5V4.5a3.5,3.5,0,0,1,7,0V32.516A3.5,3.5,0,0,1,14.5,36.017Z" transform="translate(23.772 -1)"/><path class="a" d="M150.565,5H133.174V22.38a10.435,10.435,0,0,1-20.87,0V5H49.7V22.38a10.435,10.435,0,0,1-20.87,0V5H11.435A10.431,10.431,0,0,0,1,15.428V137.087a10.431,10.431,0,0,0,10.435,10.428h139.13A10.431,10.431,0,0,0,161,137.087V15.428A10.431,10.431,0,0,0,150.565,5Zm3.478,132.087a3.477,3.477,0,0,1-3.478,3.476H11.435a3.477,3.477,0,0,1-3.478-3.476v-86.9H154.043Z" transform="translate(-1 9.007)"/><path class="a" d="M38.5,36.017a3.5,3.5,0,0,0,3.5-3.5V4.5a3.5,3.5,0,0,0-7,0V32.516A3.5,3.5,0,0,0,38.5,36.017Z" transform="translate(83.225 -1)"/></g></svg>