<svg xmlns="http://www.w3.org/2000/svg" width="163" height="142.13" viewBox="0 0 163 142.13"><defs><style>.a{fill:none;stroke:#657cbd;stroke-width:3px;}</style></defs><g transform="translate(1.5 1.5)"><path class="a" d="M157.522,143.13H4.478A3.48,3.48,0,0,1,1,139.652V7.478A3.48,3.48,0,0,1,4.478,4H157.522A3.48,3.48,0,0,1,161,7.478V139.652A3.48,3.48,0,0,1,157.522,143.13Z" transform="translate(-1 -4)"/><path class="a" d="M148.132,122.828H3V6H148.132Z" transform="translate(4.434 1.434)"/><path class="a" d="M63.888,50.868H26.717A3.718,3.718,0,0,1,23,47.151V39.717A3.718,3.718,0,0,1,26.717,36H63.888a3.718,3.718,0,0,1,3.717,3.717v7.434A3.718,3.718,0,0,1,63.888,50.868Z" transform="translate(51.667 73.393)"/></g></svg>