<svg xmlns="http://www.w3.org/2000/svg" width="163" height="114.304" viewBox="0 0 163 114.304"><defs><style>.a{fill:none;stroke:#657cbd;stroke-width:3px;}</style></defs><g transform="translate(0.5 -5.5)"><path class="a" d="M132.7,55.838A55.585,55.585,0,0,0,22.175,57.472,31.251,31.251,0,0,0,32.3,118.3H129.7a31.305,31.305,0,0,0,3-62.466Z" transform="translate(0 0)"/><path class="a" d="M70.49,40.554,47.081,17.145a3.915,3.915,0,0,0-5.528,0L18.143,40.554a3.9,3.9,0,1,0,5.518,5.518L40.414,29.319V82.337a3.9,3.9,0,0,0,7.8,0V29.319L64.972,46.072a3.9,3.9,0,0,0,5.518-5.518Z" transform="translate(36.683 17.4)"/></g></svg>