<svg xmlns="http://www.w3.org/2000/svg" width="163" height="100.139" viewBox="0 0 163 100.139"><defs><style>.a{fill:none;stroke:#657cbd;stroke-width:3px;}</style></defs><g transform="translate(1.5 1.5)"><path class="a" d="M76.761,85.733h-6.1a2.862,2.862,0,0,1-1.364-.349L32.686,65.548A3.346,3.346,0,0,1,31,62.591V36.142a3.346,3.346,0,0,1,1.686-2.957L69.3,13.349A2.86,2.86,0,0,1,70.66,13h6.1a3.184,3.184,0,0,1,3.051,3.306V82.427A3.184,3.184,0,0,1,76.761,85.733Z" transform="translate(80.188 -0.797)"/><path class="a" d="M86.42,106.139H13.2c-6.739,0-12.2-5.8-12.2-12.952V21.952C1,14.8,6.463,9,13.2,9H86.42c6.739,0,12.2,5.8,12.2,12.952V93.187C98.623,100.34,93.16,106.139,86.42,106.139Z" transform="translate(-1 -9)"/></g></svg>