<svg xmlns="http://www.w3.org/2000/svg" width="21.434" height="18.639" viewBox="0 0 21.434 18.639"><defs><style>.a{fill:#fff;}</style></defs><g transform="translate(-1 -4)"><path class="a" d="M21.969,20H1.466A.466.466,0,0,0,1,20.466v2.8a.466.466,0,0,0,.466.466h20.5a.466.466,0,0,0,.466-.466v-2.8A.466.466,0,0,0,21.969,20Z" transform="translate(0 -8.545)"/><path class="a" d="M21.969,4H1.466A.466.466,0,0,0,1,4.466v2.8a.466.466,0,0,0,.466.466h20.5a.466.466,0,0,0,.466-.466v-2.8A.466.466,0,0,0,21.969,4Z"/><path class="a" d="M21.969,36H1.466A.466.466,0,0,0,1,36.466v2.8a.466.466,0,0,0,.466.466h20.5a.466.466,0,0,0,.466-.466v-2.8A.466.466,0,0,0,21.969,36Z" transform="translate(0 -17.089)"/></g></svg>