<svg id="Layer_1" data-name="Layer 1" xmlns="http://www.w3.org/2000/svg" viewBox="0 0 514 1080"><defs><style>.cls-1{opacity:0.2;}.cls-2,.cls-3,.cls-4,.cls-5,.cls-6,.cls-7,.cls-8{fill:none;stroke-miterlimit:10;}.cls-2,.cls-4,.cls-6,.cls-8{stroke:#262d5b;}.cls-2,.cls-3{stroke-width:5.4px;}.cls-3,.cls-5,.cls-7{stroke:#3b467e;}.cls-4,.cls-5{stroke-width:3.8px;}.cls-6,.cls-7{stroke-width:2.58px;}.cls-8{stroke-width:1.03px;}</style></defs><title>WebSite_Background_CenterRight</title><g id="Group_128" data-name="Group 128" class="cls-1"><path id="Path_539" data-name="Path 539" class="cls-2" d="M615.93,65.25,537.57-70.48l-406.46,704L533.74,1330.9l-206-1010.49Z"/><path id="Path_541" data-name="Path 541" class="cls-2" d="M615.93,65.25,537.57-70.48l-406.46,704L533.74,1330.9l-206-1010.49Z"/><path id="Path_542" data-name="Path 542" class="cls-3" d="M944,633.52,615.93,65.25,327.75,320.41l206,1010.49,2.11,3.66,7-6.22Z"/><path id="Path_543" data-name="Path 543" class="cls-4" d="M592.64,440.44l-55.2-95.61L251.13,840.74,534.74,1332l-145.1-711.8Z"/><path id="Path_545" data-name="Path 545" class="cls-4" d="M592.64,440.44l-55.2-95.61L251.13,840.74,534.74,1332l-145.1-711.8Z"/><path id="Path_546" data-name="Path 546" class="cls-5" d="M823.75,840.74,592.64,440.44l-203,179.74L534.74,1332l1.49,2.58,4.95-4.38Z"/><path id="Path_547" data-name="Path 547" class="cls-6" d="M575.69,727.9,538.24,663,344,999.5l192.43,333.31L438,849.85Z"/><path id="Path_549" data-name="Path 549" class="cls-6" d="M575.69,727.9,538.24,663,344,999.5l192.43,333.31L438,849.85Z"/><path id="Path_550" data-name="Path 550" class="cls-7" d="M732.5,999.5,575.69,727.9,438,849.85l98.45,483,1,1.75,3.35-3Z"/><path id="Path_551" data-name="Path 551" class="cls-8" d="M550.87,1096l-15-26-77.74,134.67,77,133.4-39.4-193.29Z"/><path id="Path_553" data-name="Path 553" class="cls-8" d="M550.87,1096l-15-26-77.74,134.67,77,133.4-39.4-193.29Z"/><path id="Path_555" data-name="Path 555" class="cls-8" d="M550.87,1096l-15-26-77.74,134.67,77,133.4-39.4-193.29Z"/><path id="Path_557" data-name="Path 557" class="cls-8" d="M550.87,1096l-15-26-77.74,134.67,77,133.4-39.4-193.29Z"/></g></svg>