<svg xmlns="http://www.w3.org/2000/svg" xmlns:xlink="http://www.w3.org/1999/xlink" x="0px" y="0px" width="16px" height="16px" viewBox="0 0 16 16"><g transform="translate(0, 0)"><path fill="#000000" d="M8,0C3.6,0,0,3.6,0,8s3.6,8,8,8s8-3.6,8-8S12.4,0,8,0z M11.7,11.6c-0.2,0.2-0.4,0.3-0.7,0.2
	c-1.9-1.2-4.2-1.4-7-0.8c-0.3,0.1-0.5-0.1-0.6-0.4c-0.1-0.3,0.1-0.5,0.4-0.6c3-0.7,5.7-0.4,7.8,0.9C11.8,11,11.8,11.3,11.7,11.6z
	 M12.6,9.4c-0.2,0.3-0.6,0.4-0.8,0.2c-2.2-1.3-5.4-1.7-8-0.9C3.5,8.7,3.2,8.6,3.1,8.2C3,7.9,3.2,7.6,3.5,7.5c2.9-0.9,6.5-0.4,9,1.1
	C12.7,8.7,12.8,9.1,12.6,9.4z M12.7,7.1c-2.6-1.5-6.8-1.7-9.3-0.9C3,6.3,2.6,6.1,2.5,5.7C2.4,5.3,2.6,4.9,3,4.8
	C5.8,4,10.5,4.1,13.5,5.9c0.4,0.2,0.5,0.7,0.3,1C13.6,7.2,13.1,7.3,12.7,7.1z"></path></g></svg>