<svg xmlns="http://www.w3.org/2000/svg" xmlns:xlink="http://www.w3.org/1999/xlink" x="0px" y="0px" width="24px" height="24px" viewBox="0 0 24 24"><g transform="translate(0, 0)"><path data-color="color-2" d="M8.8,0a2.4,2.4,0,0,0,0,4.8h2.4V2.4A2.4,2.4,0,0,0,8.8,0" fill="#444444"></path><path d="M8.8,6.4H2.4a2.4,2.4,0,0,0,0,4.8H8.8a2.4,2.4,0,0,0,0-4.8" fill="#444444"></path><path data-color="color-2" d="M24,8.8a2.4,2.4,0,1,0-4.8,0v2.4h2.4A2.4,2.4,0,0,0,24,8.8" fill="#444444"></path><path d="M17.6,8.8V2.4a2.4,2.4,0,0,0-4.8,0V8.8a2.4,2.4,0,0,0,4.8,0" fill="#444444"></path><path data-color="color-2" d="M15.2,24a2.4,2.4,0,0,0,0-4.8H12.8v2.4A2.4,2.4,0,0,0,15.2,24" fill="#444444"></path><path d="M15.2,17.6h6.4a2.4,2.4,0,0,0,0-4.8H15.2a2.4,2.4,0,1,0,0,4.8h0" fill="#444444"></path><path data-color="color-2" d="M0,15.2a2.4,2.4,0,0,0,2.4,2.4h0a2.4,2.4,0,0,0,2.4-2.4V12.8H2.4A2.4,2.4,0,0,0,0,15.2" fill="#444444"></path><path d="M6.4,15.2v6.4a2.4,2.4,0,0,0,4.8,0V15.2a2.4,2.4,0,0,0-2.4-2.4h0a2.4,2.4,0,0,0-2.4,2.4" fill="#444444"></path></g></svg>