<svg xmlns="http://www.w3.org/2000/svg" width="22.5" height="18.224" viewBox="0 0 22.5 18.224"><defs><style>.a{fill:#fff;}</style></defs><path class="a" d="M22.4,5.173a8.3,8.3,0,0,1-2.664.7A4.53,4.53,0,0,0,21.769,3.35a8.836,8.836,0,0,1-2.944,1.121A4.513,4.513,0,0,0,15.531,3,4.622,4.622,0,0,0,10.9,7.626a5.411,5.411,0,0,0,.14,1.051A13.214,13.214,0,0,1,1.512,3.841,4.412,4.412,0,0,0,.881,6.154a4.742,4.742,0,0,0,2.033,3.855,4.282,4.282,0,0,1-2.1-.561v.07A4.586,4.586,0,0,0,4.526,14a6.906,6.906,0,0,1-1.192.14,3.413,3.413,0,0,1-.841-.07A4.682,4.682,0,0,0,6.769,17.3a9.054,9.054,0,0,1-5.748,1.963A6.029,6.029,0,0,1-.1,19.192a13.915,13.915,0,0,0,7.15,2.033A13.007,13.007,0,0,0,20.157,8.117V7.556A12.067,12.067,0,0,0,22.4,5.173Z" transform="translate(0.1 -3)"/></svg>