<svg xmlns="http://www.w3.org/2000/svg" viewBox="0 0 24 24" width="24" height="24"><title>logo mixer</title><g class="nc-icon-wrapper" fill="#ffffff"><path d="M4.422,2.367a2.451,2.451,0,0,0-3.43-.5c-.064.048-.126.1-.185.153A2.525,2.525,0,0,0,.558,5.379l4.912,6.6L.523,18.621A2.524,2.524,0,0,0,.771,21.98a2.451,2.451,0,0,0,3.462-.162c.054-.059.105-.121.153-.185l6.906-9.276a.644.644,0,0,0,0-.765Z" fill="#ffffff"/> <path d="M19.578,2.367a2.451,2.451,0,0,1,3.43-.5c.064.048.126.1.185.153a2.525,2.525,0,0,1,.249,3.359l-4.912,6.6,4.947,6.645a2.524,2.524,0,0,1-.248,3.359,2.451,2.451,0,0,1-3.462-.162c-.054-.059-.105-.121-.153-.185l-6.9-9.274a.641.641,0,0,1,0-.765Z" data-color="color-2"/></g></svg>