<svg xmlns="http://www.w3.org/2000/svg" width="21.031" height="21.029" viewBox="0 0 21.031 21.029"><defs><style>.a{fill:#fff;}</style></defs><path class="a" d="M11.514,2.893c2.8,0,3.139.011,4.248.061A4.5,4.5,0,0,1,18.924,4.1a4.5,4.5,0,0,1,1.149,3.161c.05,1.111.063,1.447.063,4.25s-.011,3.139-.061,4.248a4.5,4.5,0,0,1-1.149,3.161,4.5,4.5,0,0,1-3.161,1.149c-1.109.05-1.441.061-4.248.061s-3.139-.011-4.248-.061a4.5,4.5,0,0,1-3.161-1.149,4.5,4.5,0,0,1-1.149-3.161c-.053-1.109-.065-1.441-.065-4.248s.011-3.139.061-4.248A4.5,4.5,0,0,1,4.1,4.1,4.5,4.5,0,0,1,7.266,2.956c1.109-.05,1.445-.063,4.248-.063m0-1.893c-2.855,0-3.213.012-4.335.063a6.29,6.29,0,0,0-4.416,1.7,6.288,6.288,0,0,0-1.7,4.416C1.012,8.3,1,8.659,1,11.514s.012,3.213.063,4.335a6.29,6.29,0,0,0,1.7,4.416,6.288,6.288,0,0,0,4.416,1.7c1.121.051,1.48.063,4.335.063s3.213-.012,4.335-.063a6.29,6.29,0,0,0,4.416-1.7,6.288,6.288,0,0,0,1.7-4.416c.051-1.121.063-1.48.063-4.335s-.012-3.213-.063-4.335a6.29,6.29,0,0,0-1.7-4.416,6.288,6.288,0,0,0-4.416-1.7C14.727,1.012,14.369,1,11.514,1Z" transform="translate(-1 -1)"/><path class="a" d="M13.7,8.3a5.4,5.4,0,1,0,5.4,5.4A5.4,5.4,0,0,0,13.7,8.3Zm0,8.9a3.5,3.5,0,1,1,3.5-3.5,3.5,3.5,0,0,1-3.5,3.5Z" transform="translate(-3.183 -3.183)"/><ellipse class="a" cx="1.262" cy="1.262" rx="1.262" ry="1.262" transform="translate(14.865 3.64)"/></svg>