<svg xmlns="http://www.w3.org/2000/svg" width="103.789" height="35.277" viewBox="0 0 103.789 35.277"><defs><style>.a{fill:#fff;}.b{fill:#a70050;}.c{fill:#5565af;}.d{fill:#93003f;}.e{fill:#657cbd;}</style></defs><g transform="translate(-238.166 -701.948)"><path class="a" d="M283.943,721.98a5.921,5.921,0,0,1-1.523,4.1,5.375,5.375,0,0,1-3.959,1.393,4.985,4.985,0,0,1-4.116-1.768,7.827,7.827,0,0,1-1.431-5.041V718a7.626,7.626,0,0,1,1.48-5.029,5.851,5.851,0,0,1,8.043-.322,6.582,6.582,0,0,1,1.527,4.155h-3.208a4.27,4.27,0,0,0-.516-2.311,2.038,2.038,0,0,0-1.735-.637,1.941,1.941,0,0,0-1.816.9,6.272,6.272,0,0,0-.566,2.953v2.99a6.9,6.9,0,0,0,.528,3.242,1.936,1.936,0,0,0,1.81.88,2.092,2.092,0,0,0,1.74-.614,4.041,4.041,0,0,0,.544-2.224Z"/><path class="a" d="M295.526,721.175a8,8,0,0,1-.631,3.279,5.02,5.02,0,0,1-1.794,2.2,4.646,4.646,0,0,1-2.644.778,4.749,4.749,0,0,1-2.648-.761,4.985,4.985,0,0,1-1.816-2.2,7.952,7.952,0,0,1-.647-3.3v-.489a8.053,8.053,0,0,1,.636-3.3,5,5,0,0,1,1.8-2.2,4.686,4.686,0,0,1,2.653-.773A4.537,4.537,0,0,1,294,715.993a6.645,6.645,0,0,1,1.512,4.225Zm-3.078-.511a5.83,5.83,0,0,0-.528-2.757,1.638,1.638,0,0,0-2.985,0,5.992,5.992,0,0,0-.511,2.757v.5a5.764,5.764,0,0,0,.538,2.769,1.654,1.654,0,0,0,1.495.962,1.608,1.608,0,0,0,1.452-.973,5.8,5.8,0,0,0,.539-2.7Z"/><path class="a" d="M297.527,727.255V711.42h4.187a5.763,5.763,0,0,1,4.421,1.762,6.906,6.906,0,0,1,1.681,4.829v2.566a6.93,6.93,0,0,1-1.649,4.9,5.884,5.884,0,0,1-4.54,1.778Zm3.2-13.171V724.6h.957a2.685,2.685,0,0,0,2.252-.844,5.017,5.017,0,0,0,.684-2.909V718.1A5.619,5.619,0,0,0,304,715a2.5,2.5,0,0,0-2.109-.919Z"/><path class="a" d="M317.049,721.991h-4.133v2.73h4.916v2.534h-7.993V714.584h8v2.567h-4.927v2.285h4.133Z"/><path class="a" d="M327.087,724.014h-4.361l-.848,3.241h-3.383l4.949-15.835h2.925l4.982,15.835h-3.415Zm-3.665-2.664h2.958l-1.478-5.645Z"/><path class="a" d="M336.745,722.894h-1.1v4.361h-3.088V714.584h4.589a4.868,4.868,0,0,1,3.258.99,3.5,3.5,0,0,1,1.158,2.817,4.826,4.826,0,0,1-.447,2.2,3.442,3.442,0,0,1-1.478,1.44l2.316,5.09v.131h-3.317Zm-1.1-2.556h1.447q1.392,0,1.392-1.6,0-1.577-1.327-1.588h-1.512Z"/></g><path class="b" d="M246.706,737.1,262.624,723l-4.292-21.055L248.221,710.9l6.8,11.786Z" transform="translate(-238.166 -701.948)"/><path class="c" d="M248.221,710.9l-1.625-2.815-8.43,14.6,8.35,14.463-4.272-20.957Z" transform="translate(-238.166 -701.948)"/><path class="d" d="M255.025,722.686l-6.8-11.786-5.977,5.292,4.272,20.957.044.076.146-.129Z" transform="translate(-238.166 -701.948)"/><path class="e" d="M255.025,722.686l-6.8-11.786-5.977,5.292,4.272,20.957.044.076.146-.129Z" transform="translate(-238.166 -701.948)"/></svg>