<svg xmlns="http://www.w3.org/2000/svg" width="261.582" height="131.369" viewBox="0 0 261.582 131.369"><defs><style>.a{fill:#a70050;}.b{fill:#272d5b;}.c{fill:#93003f;}.d{fill:#3c467e;}</style></defs><g transform="translate(115.358 38.655)"><path class="a" d="M304.526,558.464q-.254,5.727-3.224,8.671t-8.384,2.945q-5.689,0-8.718-3.738T281.17,555.68v-5.636q0-6.9,3.132-10.638a10.742,10.742,0,0,1,8.707-3.737q5.481,0,8.327,3.057t3.236,8.788h-6.794q-.092-3.542-1.094-4.887t-3.674-1.346a4.11,4.11,0,0,0-3.847,1.9q-1.128,1.9-1.2,6.243v6.326q0,4.993,1.118,6.856a4.1,4.1,0,0,0,3.835,1.863q2.67,0,3.686-1.3t1.151-4.7Z" transform="translate(-281.17 -535.669)"/><path class="a" d="M322.817,555.16a16.927,16.927,0,0,1-1.336,6.936,10.607,10.607,0,0,1-3.8,4.645,9.852,9.852,0,0,1-5.6,1.645,10.061,10.061,0,0,1-5.608-1.61,10.53,10.53,0,0,1-3.847-4.646,16.783,16.783,0,0,1-1.371-6.97v-1.035a17.008,17.008,0,0,1,1.347-6.98,10.591,10.591,0,0,1,3.813-4.66,9.951,9.951,0,0,1,5.62-1.632,9.613,9.613,0,0,1,7.555,3.347,14.038,14.038,0,0,1,3.2,8.937Zm-6.519-1.081a12.328,12.328,0,0,0-1.117-5.831,3.473,3.473,0,0,0-6.323,0,12.654,12.654,0,0,0-1.083,5.831v1.058a12.167,12.167,0,0,0,1.14,5.854,3.5,3.5,0,0,0,3.167,2.037,3.409,3.409,0,0,0,3.076-2.06,12.294,12.294,0,0,0,1.139-5.716Z" transform="translate(-274.93 -534.068)"/><path class="a" d="M320.94,569.511V536.02h8.868a12.214,12.214,0,0,1,9.363,3.726q3.49,3.726,3.56,10.213v5.428q0,6.6-3.49,10.364t-9.616,3.76Zm6.772-27.855V563.9h2.028q3.385,0,4.767-1.783t1.452-6.154v-5.819q0-4.692-1.313-6.544t-4.468-1.942Z" transform="translate(-268.815 -535.561)"/><path class="a" d="M356.106,556.8h-8.753v5.773h10.411v5.36h-16.93v-26.8h16.953v5.429H347.353v4.83h8.753Z" transform="translate(-262.635 -533.981)"/><path class="a" d="M373.02,562.657h-9.236l-1.8,6.854h-7.164L365.3,536.02h6.2l10.549,33.491h-7.232Zm-7.763-5.636h6.266l-3.133-11.938Z" transform="translate(-258.29 -535.561)"/><path class="a" d="M386.415,558.708h-2.326v9.224h-6.541v-26.8h9.721a10.32,10.32,0,0,1,6.9,2.093,7.4,7.4,0,0,1,2.454,5.958,10.186,10.186,0,0,1-.945,4.657,7.283,7.283,0,0,1-3.132,3.048l4.906,10.765v.276h-7.025Zm-2.326-5.406h3.064q2.947,0,2.948-3.382,0-3.334-2.81-3.357h-3.2Z" transform="translate(-251.231 -533.981)"/></g><g transform="translate(115.826 79.369)"><path class="b" d="M284.441,578.936l-.94-.548a3.737,3.737,0,0,1-1.456-1.558,5.045,5.045,0,0,1-.518-2.335v-3.27a5.055,5.055,0,0,1,.518-2.336,3.76,3.76,0,0,1,1.456-1.56,4.212,4.212,0,0,1,2.178-.554,4.106,4.106,0,0,1,1.887.438,3.978,3.978,0,0,1,1.44,1.242,4.647,4.647,0,0,1,.784,1.86h-1.716a2.66,2.66,0,0,0-.52-1,2.553,2.553,0,0,0-.858-.675,2.305,2.305,0,0,0-3.15,1.1,3.38,3.38,0,0,0-.3,1.479v3.27a3.391,3.391,0,0,0,.3,1.475,2.3,2.3,0,0,0,.853.987,2.328,2.328,0,0,0,1.279.348,2.446,2.446,0,0,0,1.022-.221,2.39,2.39,0,0,0,.853-.656,2.6,2.6,0,0,0,.52-1.033h1.716a4.621,4.621,0,0,1-.788,1.861,4.02,4.02,0,0,1-1.444,1.241,4.072,4.072,0,0,1-1.879.438Z" transform="translate(-281.527 -566.775)"/><path class="b" d="M296.582,578.391a3.72,3.72,0,0,1-1.472-1.541,4.894,4.894,0,0,1-.522-2.306v-3.377a4.9,4.9,0,0,1,.522-2.307,3.72,3.72,0,0,1,1.472-1.541,4.714,4.714,0,0,1,4.4,0,3.739,3.739,0,0,1,1.473,1.541,4.911,4.911,0,0,1,.522,2.307v3.377a4.91,4.91,0,0,1-.522,2.306,3.739,3.739,0,0,1-1.473,1.541,4.714,4.714,0,0,1-4.4,0Zm3.5-1.434a2.243,2.243,0,0,0,.869-.943,3.088,3.088,0,0,0,.308-1.413V571.11a3.092,3.092,0,0,0-.308-1.413,2.243,2.243,0,0,0-.869-.943,2.712,2.712,0,0,0-2.6,0,2.238,2.238,0,0,0-.87.943,3.092,3.092,0,0,0-.308,1.413V574.6a3.089,3.089,0,0,0,.308,1.413,2.238,2.238,0,0,0,.87.943,2.712,2.712,0,0,0,2.6,0Z" transform="translate(-277.469 -566.775)"/><path class="b" d="M316.758,566.869h1.568v11.914h-1.633V569.86l.083.525-2.939,6.745h-1.165l-2.938-6.581.083-.688v8.924h-1.633V566.869h1.568l3.5,7.866Z" transform="translate(-273.247 -566.746)"/><path class="b" d="M325.1,578.387a3.416,3.416,0,0,1-1.431-1.517,5.347,5.347,0,0,1-.493-2.4v-7.6h1.674v7.662a2.868,2.868,0,0,0,.657,2.016,2.785,2.785,0,0,0,3.722,0,2.857,2.857,0,0,0,.661-2.016v-7.662h1.674v7.6a5.365,5.365,0,0,1-.493,2.4,3.41,3.41,0,0,1-1.435,1.517,5.207,5.207,0,0,1-4.535,0Z" transform="translate(-268.588 -566.746)"/><path class="b" d="M336.834,566.869h1.518l5.835,9.21-.2.213v-9.424h1.657v11.907h-1.535l-5.818-9.072.2-.212v9.284h-1.658Z" transform="translate(-264.346 -566.746)"/><path class="b" d="M352.616,578.784h-1.675V566.869h1.675Z" transform="translate(-259.964 -566.746)"/><path class="b" d="M359.6,566.869h1.675v11.914H359.6Zm1.132,10.324h2.7a2.866,2.866,0,0,0,2.047-.683,2.522,2.522,0,0,0,.726-1.931v-3.506a2.517,2.517,0,0,0-.726-1.929,2.866,2.866,0,0,0-2.047-.685h-2.7v-1.59h2.651a5.515,5.515,0,0,1,2.454.5,3.484,3.484,0,0,1,1.551,1.458,4.694,4.694,0,0,1,.533,2.311v3.377a4.693,4.693,0,0,1-.533,2.31,3.477,3.477,0,0,1-1.556,1.458,5.534,5.534,0,0,1-2.457.5h-2.642Z" transform="translate(-257.273 -566.746)"/><path class="b" d="M376.479,566.869h1.429l4.4,11.914h-1.8l-3.307-9.612-3.307,9.612H372.08Zm-2.371,7.71h6.277v1.59h-6.277Z" transform="translate(-253.397 -566.746)"/><path class="b" d="M386.387,566.869h1.675v11.914h-1.675Zm1.132,10.324h2.7a2.865,2.865,0,0,0,2.047-.683,2.521,2.521,0,0,0,.726-1.931v-3.506a2.517,2.517,0,0,0-.726-1.929,2.866,2.866,0,0,0-2.047-.685h-2.7v-1.59h2.651a5.515,5.515,0,0,1,2.454.5,3.484,3.484,0,0,1,1.55,1.458,4.694,4.694,0,0,1,.533,2.311v3.377a4.692,4.692,0,0,1-.533,2.31,3.477,3.477,0,0,1-1.556,1.458,5.534,5.534,0,0,1-2.457.5h-2.642Z" transform="translate(-248.952 -566.746)"/></g><g transform="translate(115.194 96.881)"><path class="b" d="M281.045,580.224h.862v8.7h-.862Zm.467,7.9h2.121a.618.618,0,0,0,.48-.185.77.77,0,0,0,.166-.528v-5.67a.766.766,0,0,0-.166-.526.618.618,0,0,0-.48-.185h-2.121v-.8H283.6a1.8,1.8,0,0,1,.839.182,1.211,1.211,0,0,1,.527.533,1.825,1.825,0,0,1,.181.847v5.574a1.809,1.809,0,0,1-.183.847,1.245,1.245,0,0,1-.53.533,1.8,1.8,0,0,1-.839.182h-2.079Z" transform="translate(-281.045 -580.134)"/><path class="b" d="M285.085,580.224h.862v8.7h-.862Zm.592,0h3.144v.8h-3.144Zm0,3.978h2.845v.8h-2.845Zm0,3.917h3.144v.8h-3.144Z" transform="translate(-279.79 -580.134)"/><path class="b" d="M289.992,580.224h.864v8.7h-.864Zm.468,7.9h2.121a.613.613,0,0,0,.478-.185.763.763,0,0,0,.168-.528v-5.67a.759.759,0,0,0-.168-.526.613.613,0,0,0-.478-.185H290.46v-.8h2.084a1.8,1.8,0,0,1,.839.182,1.211,1.211,0,0,1,.527.533,1.825,1.825,0,0,1,.18.847v5.574a1.809,1.809,0,0,1-.182.847,1.241,1.241,0,0,1-.531.533,1.794,1.794,0,0,1-.838.182H290.46Z" transform="translate(-278.266 -580.134)"/><path class="b" d="M294.032,580.224h.864v8.7h-.864Zm.594,0h3.144v.8h-3.144Zm0,3.978h2.845v.8h-2.845Zm0,3.917h3.144v.8h-3.144Z" transform="translate(-277.011 -580.134)"/><path class="b" d="M298.461,588.808a1.5,1.5,0,0,1-.7-.679,2.467,2.467,0,0,1-.233-1.136v-.431h.851v.431a1.265,1.265,0,0,0,.315.938,1.306,1.306,0,0,0,.955.311,1.256,1.256,0,0,0,.931-.311,1.28,1.28,0,0,0,.309-.938v-.514a1.322,1.322,0,0,0-.186-.715,1.7,1.7,0,0,0-.476-.5,6.307,6.307,0,0,0-.747-.428.141.141,0,0,1-.031-.016l-.028-.014-.084-.042a8.5,8.5,0,0,1-.95-.533,2.064,2.064,0,0,1-.6-.643,1.886,1.886,0,0,1-.248-1v-.424a2.4,2.4,0,0,1,.233-1.118,1.473,1.473,0,0,1,.7-.67,2.739,2.739,0,0,1,1.174-.222,2.548,2.548,0,0,1,1.138.225,1.471,1.471,0,0,1,.683.675,2.5,2.5,0,0,1,.228,1.133v.456h-.851v-.456a1.3,1.3,0,0,0-.3-.933,1.2,1.2,0,0,0-.9-.31,1.331,1.331,0,0,0-.944.3,1.164,1.164,0,0,0-.315.889v.424a1.16,1.16,0,0,0,.2.682,1.694,1.694,0,0,0,.488.463,8.54,8.54,0,0,0,.8.428l.093.044.092.044a.328.328,0,0,0,.046.021.221.221,0,0,1,.038.022,5.057,5.057,0,0,1,.83.505,1.992,1.992,0,0,1,.554.673,2.142,2.142,0,0,1,.216,1.005v.55a2.486,2.486,0,0,1-.231,1.133,1.512,1.512,0,0,1-.695.679,2.662,2.662,0,0,1-1.165.226A2.75,2.75,0,0,1,298.461,588.808Z" transform="translate(-275.926 -580.155)"/><path class="b" d="M303.114,580.224h1.043l2.013,8.7h-.959l-1.575-7.734-1.575,7.734H301.1Zm-.891,5.784h2.958v.8h-2.958Z" transform="translate(-274.814 -580.134)"/><path class="b" d="M305.562,580.219h.862v8.7h-.862Zm.533,4.224h1.611a1.448,1.448,0,0,0,.668-.144.971.971,0,0,0,.425-.422,1.406,1.406,0,0,0,.147-.667v-.9a1.518,1.518,0,0,0-.147-.7,1.015,1.015,0,0,0-.425-.444,1.385,1.385,0,0,0-.668-.152H306.1v-.8h1.552a2.693,2.693,0,0,1,1.168.232,1.633,1.633,0,0,1,.739.675,2.113,2.113,0,0,1,.254,1.068v1.016a2.216,2.216,0,0,1-.254,1.1,1.679,1.679,0,0,1-.739.7,2.634,2.634,0,0,1-1.168.238H306.1Zm1.8.533.767-.276,1.389,4.224h-1Z" transform="translate(-273.429 -580.135)"/><path class="b" d="M309.79,580.219h.862v8.7h-.862Zm.533,4.224h1.611a1.439,1.439,0,0,0,.667-.144.974.974,0,0,0,.426-.422,1.422,1.422,0,0,0,.147-.667v-.9a1.535,1.535,0,0,0-.147-.7,1.018,1.018,0,0,0-.426-.444,1.376,1.376,0,0,0-.667-.152h-1.611v-.8h1.551a2.689,2.689,0,0,1,1.168.232,1.636,1.636,0,0,1,.741.675,2.126,2.126,0,0,1,.254,1.068v1.016a2.23,2.23,0,0,1-.254,1.1,1.682,1.682,0,0,1-.741.7,2.63,2.63,0,0,1-1.168.238h-1.551Zm1.8.533.767-.276,1.389,4.224h-1Z" transform="translate(-272.115 -580.135)"/><path class="b" d="M315.012,588.775a1.73,1.73,0,0,1-.741-.747,2.539,2.539,0,0,1-.254-1.185v-4.5a2.539,2.539,0,0,1,.254-1.185,1.729,1.729,0,0,1,.741-.747,2.774,2.774,0,0,1,2.336,0,1.733,1.733,0,0,1,.739.747,2.538,2.538,0,0,1,.254,1.185v4.5a2.538,2.538,0,0,1-.254,1.185,1.734,1.734,0,0,1-.739.747,2.787,2.787,0,0,1-2.336,0Zm1.87-.74a1.027,1.027,0,0,0,.444-.445,1.521,1.521,0,0,0,.152-.707V582.3a1.52,1.52,0,0,0-.152-.706,1.027,1.027,0,0,0-.444-.445,1.691,1.691,0,0,0-1.406,0,1.027,1.027,0,0,0-.444.445,1.52,1.52,0,0,0-.152.706v4.581a1.521,1.521,0,0,0,.152.707,1.027,1.027,0,0,0,.444.445,1.691,1.691,0,0,0,1.406,0Z" transform="translate(-270.802 -580.155)"/><path class="b" d="M318.23,580.224h.862v8.7h-.862Zm.612,7.9h3.005v.8h-3.005Z" transform="translate(-269.493 -580.134)"/><path class="b" d="M321.676,580.224h.862v8.7h-.862Zm.611,7.9h3.007v.8h-3.007Z" transform="translate(-268.423 -580.134)"/><path class="b" d="M326.814,580.224h1.043l2.012,8.7h-.958l-1.575-7.734-1.575,7.734H324.8Zm-.893,5.784h2.959v.8h-2.959Z" transform="translate(-267.452 -580.134)"/><path class="b" d="M329.262,580.224h.864v8.7h-.864Zm.468,7.9h2.121a.613.613,0,0,0,.478-.185.763.763,0,0,0,.168-.528v-5.67a.759.759,0,0,0-.168-.526.613.613,0,0,0-.478-.185H329.73v-.8h2.084a1.8,1.8,0,0,1,.839.182,1.212,1.212,0,0,1,.527.533,1.826,1.826,0,0,1,.18.847v5.574a1.808,1.808,0,0,1-.182.847,1.241,1.241,0,0,1-.531.533,1.794,1.794,0,0,1-.838.182H329.73Z" transform="translate(-266.066 -580.134)"/><path class="b" d="M334.3,588.775a1.729,1.729,0,0,1-.74-.747,2.538,2.538,0,0,1-.254-1.185v-4.5a2.538,2.538,0,0,1,.254-1.185,1.729,1.729,0,0,1,.74-.747,2.774,2.774,0,0,1,2.336,0,1.719,1.719,0,0,1,.739.747,2.539,2.539,0,0,1,.254,1.185v4.5a2.539,2.539,0,0,1-.254,1.185,1.72,1.72,0,0,1-.739.747,2.787,2.787,0,0,1-2.336,0Zm1.872-.74a1.032,1.032,0,0,0,.443-.445,1.505,1.505,0,0,0,.153-.707V582.3a1.5,1.5,0,0,0-.153-.706,1.031,1.031,0,0,0-.443-.445,1.694,1.694,0,0,0-1.408,0,1.027,1.027,0,0,0-.444.445,1.52,1.52,0,0,0-.152.706v4.581a1.522,1.522,0,0,0,.152.707,1.028,1.028,0,0,0,.444.445,1.694,1.694,0,0,0,1.408,0Z" transform="translate(-264.811 -580.155)"/><path class="b" d="M337.515,580.219h.864v8.7h-.864Zm.533,4.224h1.612a1.446,1.446,0,0,0,.667-.144.98.98,0,0,0,.426-.422,1.422,1.422,0,0,0,.145-.667v-.9a1.535,1.535,0,0,0-.145-.7,1.025,1.025,0,0,0-.426-.444,1.383,1.383,0,0,0-.667-.152h-1.612v-.8H339.6a2.693,2.693,0,0,1,1.168.232,1.633,1.633,0,0,1,.739.675,2.113,2.113,0,0,1,.256,1.068v1.016a2.216,2.216,0,0,1-.256,1.1,1.679,1.679,0,0,1-.739.7,2.634,2.634,0,0,1-1.168.238h-1.552Zm1.8.533.767-.276,1.389,4.224h-1Z" transform="translate(-263.503 -580.135)"/><path class="b" d="M341.743,580.224h.862v8.7h-.862Zm.592,0h3.144v.8h-3.144Zm0,3.978h2.845v.8h-2.845Zm0,3.917h3.144v.8h-3.144Z" transform="translate(-262.189 -580.134)"/><path class="b" d="M346.171,588.808a1.5,1.5,0,0,1-.7-.679,2.484,2.484,0,0,1-.233-1.136v-.431h.851v.431a1.265,1.265,0,0,0,.315.938,1.306,1.306,0,0,0,.955.311,1.258,1.258,0,0,0,.932-.311,1.285,1.285,0,0,0,.308-.938v-.514a1.31,1.31,0,0,0-.186-.715,1.667,1.667,0,0,0-.476-.5,6.282,6.282,0,0,0-.746-.428.126.126,0,0,1-.033-.016l-.028-.014-.084-.042a8.576,8.576,0,0,1-.949-.533,2.083,2.083,0,0,1-.606-.643,1.886,1.886,0,0,1-.248-1v-.424a2.4,2.4,0,0,1,.233-1.118,1.476,1.476,0,0,1,.7-.67,2.728,2.728,0,0,1,1.173-.222,2.554,2.554,0,0,1,1.139.225,1.471,1.471,0,0,1,.683.675,2.523,2.523,0,0,1,.227,1.133v.456h-.851v-.456a1.3,1.3,0,0,0-.3-.933,1.2,1.2,0,0,0-.9-.31,1.329,1.329,0,0,0-.942.3,1.164,1.164,0,0,0-.315.889v.424a1.151,1.151,0,0,0,.2.682,1.677,1.677,0,0,0,.488.463,8.487,8.487,0,0,0,.8.428l.093.044.093.044a.262.262,0,0,0,.045.021.191.191,0,0,1,.039.022,5.057,5.057,0,0,1,.83.505,1.99,1.99,0,0,1,.553.673,2.143,2.143,0,0,1,.216,1.005v.55a2.486,2.486,0,0,1-.231,1.133,1.5,1.5,0,0,1-.695.679,2.654,2.654,0,0,1-1.165.226A2.754,2.754,0,0,1,346.171,588.808Z" transform="translate(-261.105 -580.155)"/><path class="b" d="M350.686,580.224h.862v8.7h-.862Zm.468,7.9h2.119a.614.614,0,0,0,.48-.185.763.763,0,0,0,.168-.528v-5.67a.759.759,0,0,0-.168-.526.614.614,0,0,0-.48-.185h-2.119v-.8h2.084a1.8,1.8,0,0,1,.839.182,1.218,1.218,0,0,1,.527.533,1.842,1.842,0,0,1,.18.847v5.574a1.824,1.824,0,0,1-.182.847,1.241,1.241,0,0,1-.531.533,1.794,1.794,0,0,1-.837.182h-2.079Z" transform="translate(-259.411 -580.134)"/><path class="b" d="M354.726,580.224h.862v8.7h-.862Zm.592,0h3.144v.8h-3.144Zm0,3.978h2.845v.8h-2.845Zm0,3.917h3.144v.8h-3.144Z" transform="translate(-258.156 -580.134)"/><path class="b" d="M361.326,580.224h1.043l2.012,8.7h-.958l-1.575-7.734-1.575,7.734h-.958Zm-.891,5.784h2.958v.8h-2.958Z" transform="translate(-256.731 -580.134)"/><path class="b" d="M363.775,580.219h.862v8.7h-.862Zm.532,4.224h1.612a1.439,1.439,0,0,0,.667-.144.973.973,0,0,0,.426-.422,1.422,1.422,0,0,0,.147-.667v-.9a1.535,1.535,0,0,0-.147-.7,1.018,1.018,0,0,0-.426-.444,1.376,1.376,0,0,0-.667-.152h-1.612v-.8h1.552a2.689,2.689,0,0,1,1.168.232,1.636,1.636,0,0,1,.741.675,2.126,2.126,0,0,1,.254,1.068v1.016a2.23,2.23,0,0,1-.254,1.1,1.683,1.683,0,0,1-.741.7,2.63,2.63,0,0,1-1.168.238h-1.552Zm1.8.533.767-.276,1.389,4.224h-1Z" transform="translate(-255.345 -580.135)"/><path class="b" d="M372.218,584.26v2.535a2.728,2.728,0,0,1-.246,1.208,1.723,1.723,0,0,1-.714.766,2.285,2.285,0,0,1-1.13.263,2.484,2.484,0,0,1-1.151-.247,1.682,1.682,0,0,1-.727-.721,2.42,2.42,0,0,1-.248-1.136v-4.54a2.709,2.709,0,0,1,.245-1.205,1.723,1.723,0,0,1,.716-.762,2.539,2.539,0,0,1,2.237-.009,1.665,1.665,0,0,1,.7.742,2.6,2.6,0,0,1,.242,1.169v.418h-.935v-.418a1.834,1.834,0,0,0-.128-.724.978.978,0,0,0-.38-.456,1.143,1.143,0,0,0-.612-.154,1.274,1.274,0,0,0-.665.165,1.049,1.049,0,0,0-.419.478,1.834,1.834,0,0,0-.143.757v4.54a1.469,1.469,0,0,0,.149.687,1.007,1.007,0,0,0,.431.437,1.442,1.442,0,0,0,.683.149,1.3,1.3,0,0,0,.664-.161,1.038,1.038,0,0,0,.419-.474,1.768,1.768,0,0,0,.144-.747v-1.758H370.1v-.8Z" transform="translate(-254.032 -580.155)"/><path class="b" d="M372.133,580.224H373v8.7h-.862Zm.592,0h3.146v.8h-3.146Zm0,3.978h2.845v.8h-2.845Zm0,3.917h3.146v.8h-3.146Z" transform="translate(-252.749 -580.134)"/><path class="b" d="M375.67,580.224h.809l2.762,7.143-.144.154v-7.3h.851v8.691h-.82l-2.75-7.141.144-.156v7.3h-.851Z" transform="translate(-251.65 -580.134)"/><path class="b" d="M379.39,580.224h4.228v.8H379.39Zm1.683.712h.862v7.985h-.862Z" transform="translate(-250.494 -580.134)"/><path class="b" d="M384.031,588.921h-.862v-8.7h.862Z" transform="translate(-249.32 -580.134)"/><path class="b" d="M384.838,580.224h.807l2.762,7.143-.144.154v-7.3h.851v8.691h-.82l-2.748-7.141.144-.156v7.3h-.851Z" transform="translate(-248.802 -580.134)"/><path class="b" d="M390.707,580.224h1.042l2.013,8.7H392.8l-1.574-7.734-1.575,7.734H388.7Zm-.893,5.784h2.958v.8h-2.958Z" transform="translate(-247.604 -580.134)"/></g><path class="a" d="M217.451,637.024l59.358-52.484-16-78.4-37.7,33.337,25.374,43.889Z" transform="translate(-185.606 -506.135)"/><path class="b" d="M230.65,534.079,224.589,523.6l-31.435,54.372,31.138,53.86-15.931-78.043Z" transform="translate(-193.154 -500.742)"/><path class="c" d="M252.419,575.495l-25.374-43.889-22.288,19.707,15.931,78.043.163.283.543-.48Z" transform="translate(-189.55 -498.269)"/><path class="d" d="M252.419,575.495l-25.374-43.889-22.288,19.707,15.931,78.043.163.283.543-.48Z" transform="translate(-189.55 -498.269)"/></svg>