<svg width="677" height="330" viewBox="0 0 677 330" fill="none" xmlns="http://www.w3.org/2000/svg">
<rect opacity="0.5" x="39.5" y="39.5" width="636" height="289" rx="32.5" stroke="white" stroke-width="3"/>
<rect x="1.5" y="1.5" width="636" height="289" rx="32.5" stroke="white" stroke-width="3"/>
<rect x="19" y="19" width="639" height="292" rx="34" fill="white"/>
<path d="M175.529 234.993L201.296 259.579L161.129 274.872L118.689 252.997L142.561 235.38L175.529 234.993Z" stroke="#3C477F" stroke-width="2" stroke-miterlimit="10"/>
<path d="M206.232 124.257L181.134 54.8569L151.282 90.4128L180.373 127.109L158.698 181.109L206.232 124.257Z" fill="#A71D53"/>
<path d="M143.677 91.3634L136.832 82.6171L115.536 136.616L151.092 181.489L151.472 181.869L151.662 181.109L172.768 128.06L143.677 91.3634Z" fill="#3C477F"/>
<path d="M111.093 147.638L150.111 195.683L158.568 253.034" fill="#23272C"/>
<path d="M166.164 254.933L157.619 197.012L209.842 136.244L166.164 254.933Z" fill="#23272C"/>
<path d="M311.188 142.13C310.808 149.546 308.717 155.06 304.914 158.863C301.111 162.665 295.787 164.567 288.752 164.567C281.527 164.567 275.823 162.095 272.02 157.341C268.217 152.588 266.126 145.743 266.126 136.807V125.969C266.126 117.222 268.217 110.377 272.21 105.624C276.203 100.87 281.717 98.3986 288.942 98.3986C295.977 98.3986 301.301 100.3 304.914 104.293C308.526 108.286 310.618 113.8 311.188 121.215H298.069C297.879 116.652 297.308 113.61 295.977 111.898C294.646 110.187 292.365 109.236 288.942 109.236C287.421 109.046 286.09 109.427 284.759 109.997C283.428 110.567 282.287 111.708 281.527 112.849C280.196 115.321 279.245 119.314 279.245 124.828V136.997C279.245 143.461 280.006 147.835 281.337 150.116C282.097 151.257 283.238 152.398 284.569 152.968C285.9 153.539 287.231 153.919 288.752 153.729C292.175 153.729 294.456 152.968 295.787 151.257C297.118 149.546 297.879 146.504 298.069 142.13H311.188Z" fill="#A71D53"/>
<path d="M358.343 138.898C358.533 143.461 357.582 148.025 355.871 152.208C354.35 155.82 351.878 158.863 348.646 161.144C345.413 163.236 341.611 164.377 337.808 164.377C334.005 164.377 330.202 163.426 326.97 161.334C323.738 159.053 321.076 156.01 319.554 152.398C317.653 148.215 316.893 143.652 316.893 139.088V137.187C316.702 132.623 317.653 127.87 319.554 123.687C321.076 120.074 323.547 117.032 326.78 114.75C330.012 112.659 333.815 111.518 337.618 111.708C340.28 111.708 343.132 112.089 345.603 113.229C348.075 114.37 350.357 116.081 352.068 118.173C355.871 122.546 357.962 128.25 358.153 135.285L358.343 138.898ZM345.794 136.807C345.984 133.004 345.223 129.011 343.702 125.588C343.132 124.448 342.371 123.497 341.23 122.736C340.089 121.976 338.949 121.595 337.618 121.595C336.287 121.595 335.146 121.976 334.005 122.736C332.864 123.497 332.104 124.448 331.533 125.588C330.012 129.201 329.252 133.004 329.442 136.807V138.898C329.252 142.701 330.012 146.694 331.533 150.116C332.104 151.257 332.864 152.208 334.005 152.968C335.146 153.729 336.287 154.109 337.618 154.109C338.949 154.109 340.089 153.729 341.23 152.968C342.371 152.208 343.132 151.257 343.512 150.116C345.033 146.694 345.794 142.891 345.603 139.088L345.794 136.807Z" fill="#A71D53"/>
<path d="M366.328 163.616V99.1591H383.441C390.856 99.1591 396.941 101.631 401.314 106.384C405.687 111.138 407.969 117.793 408.159 125.969V136.426C408.159 144.792 405.877 151.447 401.504 156.391C396.941 161.144 390.856 163.616 383.251 163.616H366.328V163.616ZM379.448 110.187V152.778H383.251C387.624 152.778 390.666 151.637 392.377 149.356C394.089 147.074 395.039 143.081 395.23 137.567V126.349C395.23 120.264 394.469 116.081 392.758 113.8C391.046 111.328 388.194 110.187 384.201 109.997L379.448 110.187Z" fill="#A71D53"/>
<path d="M445.806 142.13H428.884V153.158H448.848V163.426H416.335V111.898H448.848V122.356H428.884V131.673H445.806V142.13Z" fill="#A71D53"/>
<path d="M486.496 150.496H468.813L465.391 163.616H451.701L471.855 99.3492H483.834L503.989 163.616H490.109L486.496 150.496ZM471.665 139.659H483.644L477.559 116.652L471.665 139.659Z" fill="#A71D53"/>
<path d="M525.854 145.933H521.481V163.616H508.932V112.089H527.566C533.27 112.089 537.643 113.419 540.875 116.081C542.397 117.602 543.728 119.314 544.488 121.215C545.249 123.116 545.629 125.398 545.439 127.49C545.629 130.532 544.868 133.574 543.537 136.426C542.206 138.898 540.115 140.99 537.453 142.32L546.77 163.046V163.616H533.27L525.854 145.933ZM521.291 135.475H527.185C530.988 135.475 532.89 133.384 532.89 129.011C532.89 124.638 531.178 122.546 527.566 122.546H521.481V135.475H521.291Z" fill="#A71D53"/>
<path d="M276.583 176.735H279.245L287.421 198.982H283.999L277.914 181.109L271.83 198.982H268.407L276.583 176.735ZM272.21 191.186H283.808V194.228H272.21V191.186Z" fill="#3C477F"/>
<path d="M330.202 176.735H332.294L336.857 194.228L340.85 176.735H344.082L338.568 198.982H335.336L331.153 183.39L326.78 198.982H323.547L318.033 176.735H321.266L325.259 194.228L330.202 176.735Z" fill="#3C477F"/>
<path d="M383.251 176.735H385.913L394.089 198.982H390.666L384.582 181.109L378.497 198.982H375.075L383.251 176.735ZM378.688 191.186H390.286V194.228H378.688V191.186Z" fill="#3C477F"/>
<path d="M428.694 176.735H431.736V198.982H428.694V176.735ZM430.025 186.623H437.63C438.201 186.623 438.771 186.432 439.151 186.242C439.532 186.052 439.912 185.482 440.292 185.101C440.482 184.531 440.673 183.961 440.673 183.2C440.673 182.439 440.482 181.869 440.292 181.299C440.102 180.728 439.722 180.348 439.151 180.158C438.771 179.968 438.201 179.778 437.63 179.778H430.025V176.735H437.44C438.771 176.735 439.912 176.925 440.863 177.496C441.813 178.066 442.574 178.827 443.144 179.778C443.715 180.728 443.905 181.869 443.905 183.2C443.905 184.531 443.715 185.672 443.144 186.623C442.574 187.573 441.813 188.334 440.863 188.904C439.912 189.475 438.771 189.665 437.44 189.665H430.025V186.623ZM436.109 188.904L439.151 188.144L444.856 198.982H441.243L436.109 188.904Z" fill="#3C477F"/>
<path d="M480.411 176.735H483.454V198.982H480.411V176.735ZM482.503 196.129H487.447C489.158 196.129 490.299 195.749 491.249 194.798C492.2 194.038 492.58 192.707 492.58 191.186V184.721C492.58 183.2 492.2 182.059 491.249 181.109C490.299 180.348 489.158 179.778 487.447 179.778H482.503V176.735H487.447C489.158 176.735 490.679 177.116 492.01 177.686C493.341 178.256 494.292 179.207 494.862 180.348C495.432 181.489 495.813 183.01 495.813 184.721V190.996C495.813 192.707 495.432 194.038 494.862 195.369C494.292 196.51 493.151 197.46 492.01 198.031C490.869 198.601 489.158 198.982 487.447 198.982H482.503V196.129Z" fill="#3C477F"/>
<path d="M535.361 198.981C534.411 198.791 533.46 198.411 532.699 198.031C531.939 197.651 531.178 197.08 530.418 196.51L532.319 194.038C533.08 194.798 534.03 195.369 535.171 195.749C536.122 196.129 537.263 196.32 538.404 196.32C539.925 196.32 541.256 195.939 542.206 195.369C543.157 194.798 543.537 193.848 543.537 192.897C543.537 192.137 543.347 191.566 542.967 190.996C542.587 190.615 542.016 190.235 541.446 190.045C540.875 189.855 539.925 189.665 538.974 189.475C538.974 189.475 538.974 189.475 538.784 189.475C538.784 189.475 538.784 189.475 538.594 189.475H538.404C536.883 189.284 535.742 188.904 534.791 188.524C533.84 188.144 533.08 187.573 532.319 186.813C531.749 186.052 531.369 184.721 531.369 183.2C531.369 181.869 531.749 180.728 532.319 179.587C532.89 178.447 533.84 177.876 534.981 177.306C536.122 176.735 537.643 176.545 539.164 176.545C539.925 176.545 540.685 176.545 541.446 176.735C542.206 176.925 542.967 177.116 543.728 177.496C544.488 177.876 545.249 178.256 546.009 178.827L544.298 181.299C543.537 180.728 542.587 180.158 541.826 179.968C541.066 179.778 540.115 179.587 539.354 179.587C537.833 179.587 536.692 179.968 535.742 180.538C534.981 181.108 534.411 182.059 534.411 183.2C534.411 183.961 534.601 184.531 534.981 184.911C535.361 185.292 535.932 185.672 536.692 185.862C537.263 186.052 538.213 186.242 539.354 186.432C539.354 186.432 539.354 186.432 539.544 186.432C539.544 186.432 539.544 186.432 539.735 186.432H539.925H540.115C541.446 186.622 542.587 187.003 543.537 187.383C544.488 187.763 545.249 188.334 545.819 189.284C546.389 190.045 546.77 191.186 546.77 192.707C546.77 194.038 546.389 195.179 545.819 196.129C545.249 197.08 544.298 197.841 542.967 198.411C541.636 198.981 540.305 199.172 538.594 199.172C537.263 199.362 536.312 199.172 535.361 198.981Z" fill="#3C477F"/>
<path d="M355.8 231.575L341.906 218.661L259.109 218.851C253.019 218.851 248.831 212.964 250.164 207.457H249.783L248.07 211.255C246.738 216.762 250.925 222.649 257.016 222.649L339.812 222.459L353.707 235.373C355.039 237.651 355.229 240.31 354.658 242.589C357.133 239.74 357.894 235.183 355.8 231.575Z" fill="#929497"/>
<path d="M565.594 211.255L563.883 207.457H563.503C564.833 212.964 560.651 218.851 554.568 218.851L471.876 218.661L457.999 231.575C455.717 235.373 456.668 239.74 459.329 242.589C458.759 240.31 458.949 237.841 460.28 235.373L474.157 222.459L556.849 222.649C562.932 222.649 567.114 216.762 565.594 211.255Z" fill="#929497"/>
<path d="M383.061 254.502H363.667V250.319L372.603 240.052C373.744 238.721 374.505 237.39 375.075 236.249C375.645 235.108 375.836 234.158 375.836 233.207C375.836 231.876 375.645 230.925 375.075 230.165C374.505 229.404 373.934 229.024 372.983 229.024C372.033 229.024 371.082 229.404 370.512 230.355C369.941 231.306 369.561 232.446 369.561 233.968H363.096C363.096 232.066 363.477 230.545 364.427 229.024C365.188 227.503 366.519 226.362 368.04 225.411C369.561 224.651 371.272 224.08 373.174 224.08C376.026 224.08 378.307 224.841 380.019 226.362C381.73 227.883 382.49 229.975 382.49 232.637C382.49 234.348 382.11 236.059 381.159 237.77C380.209 239.482 378.688 241.573 376.216 244.235L372.033 249.749H383.251V254.502H383.061Z" fill="#272D5B"/>
<path d="M405.117 242.143C405.117 246.326 404.356 249.368 402.645 251.65C400.934 253.932 398.652 254.882 395.61 254.882C392.568 254.882 390.286 253.742 388.575 251.65C386.864 249.559 386.103 246.516 386.103 242.523V236.819C386.103 232.636 386.864 229.594 388.575 227.312C390.286 225.221 392.568 224.08 395.61 224.08C398.652 224.08 401.124 225.221 402.645 227.312C404.356 229.404 405.117 232.636 405.117 236.629V242.143ZM398.652 236.059C398.652 233.777 398.462 231.876 397.892 230.735C397.321 229.594 396.561 229.024 395.42 229.024C393.328 229.024 392.378 231.115 392.187 235.488V242.904C392.187 245.376 392.378 247.087 392.948 248.228C393.518 249.368 394.279 249.939 395.42 249.939C396.37 249.939 397.321 249.368 397.701 248.228C398.272 247.087 398.462 245.376 398.462 243.094V236.059H398.652Z" fill="#272D5B"/>
<path d="M427.553 254.502H408.159V250.319L417.096 240.052C418.236 238.721 418.997 237.39 419.567 236.249C420.138 235.108 420.328 234.157 420.328 233.207C420.328 231.876 420.138 230.925 419.567 230.164C418.997 229.404 418.426 229.024 417.476 229.024C416.525 229.024 415.574 229.404 415.004 230.355C414.434 231.305 414.053 232.446 414.053 233.967H407.589C407.589 232.066 407.969 230.545 408.92 229.024C409.68 227.503 411.011 226.362 412.532 225.411C414.053 224.65 415.765 224.08 417.666 224.08C420.518 224.08 422.8 224.841 424.511 226.362C426.222 227.883 426.983 229.974 426.983 232.636C426.983 234.348 426.602 236.059 425.652 237.77C424.701 239.481 423.18 241.573 420.708 244.235L416.525 249.749H427.743V254.502H427.553Z" fill="#272D5B"/>
<path d="M449.609 242.143C449.609 246.326 448.849 249.368 447.137 251.65C445.426 253.932 443.144 254.882 440.102 254.882C437.06 254.882 434.778 253.742 433.067 251.65C431.356 249.559 430.595 246.516 430.595 242.523V236.819C430.595 232.636 431.356 229.594 433.067 227.312C434.778 225.221 437.06 224.08 440.102 224.08C443.144 224.08 445.616 225.221 447.137 227.312C448.849 229.404 449.609 232.636 449.609 236.629V242.143ZM443.144 236.059C443.144 233.777 442.954 231.876 442.384 230.735C441.813 229.594 441.053 229.024 439.912 229.024C437.821 229.024 436.87 231.115 436.68 235.488V242.904C436.68 245.376 436.87 247.087 437.44 248.228C438.011 249.368 438.771 249.939 439.912 249.939C440.863 249.939 441.813 249.368 442.194 248.228C442.764 247.087 442.954 245.376 442.954 243.094V236.059H443.144Z" fill="#272D5B"/>
</svg>
